<svg xmlns="http://www.w3.org/2000/svg" xmlns:xlink="http://www.w3.org/1999/xlink" width="500" zoomAndPan="magnify" viewBox="0 0 375 374.999991" height="500" preserveAspectRatio="xMidYMid meet" version="1.0"><defs><clipPath id="6d7cbe53ae"><path d="M 27.691406 37.5 L 347.191406 37.5 L 347.191406 360 L 27.691406 360 Z M 27.691406 37.5 " clip-rule="nonzero"/></clipPath><clipPath id="069b8041ce"><path d="M 40.652344 50.496094 L 334.652344 50.496094 L 334.652344 346.746094 L 40.652344 346.746094 Z M 40.652344 50.496094 " clip-rule="nonzero"/></clipPath><clipPath id="67871e8989"><path d="M 141.777344 127.589844 L 233.277344 127.589844 L 233.277344 219.089844 L 141.777344 219.089844 Z M 141.777344 127.589844 " clip-rule="nonzero"/></clipPath></defs><g clip-path="url(#6d7cbe53ae)"><path fill="#ffffff" d="M 347.253906 103.480469 C 347.253906 103.480469 343.949219 272.566406 187.464844 359.785156 C 30.925781 272.566406 27.691406 103.480469 27.691406 103.480469 L 92.160156 37.820312 L 282.800781 37.820312 Z M 347.253906 103.480469 " fill-opacity="1" fill-rule="nonzero"/></g><g clip-path="url(#069b8041ce)"><path fill="#00357a" d="M 334.296875 111.121094 C 334.296875 111.121094 331.261719 266.496094 187.46875 346.636719 C 43.625 266.496094 40.652344 111.121094 40.652344 111.121094 L 99.890625 50.789062 L 275.070312 50.789062 Z M 334.296875 111.121094 " fill-opacity="1" fill-rule="nonzero"/></g><path fill="#ffffff" d="M 218.019531 79.375 L 231.6875 148.40625 L 246.808594 135.164062 C 265.441406 164.113281 260.667969 203.011719 233.871094 226.414062 C 215.898438 242.21875 192.042969 247.140625 170.367188 241.800781 L 163.59375 269.1875 C 193.835938 276.6875 227.269531 269.6875 252.46875 247.511719 C 290.941406 213.84375 296.988281 157.039062 268.09375 116.238281 L 284.394531 101.921875 Z M 128.339844 211.480469 C 109.695312 182.53125 114.460938 143.605469 141.097656 120.222656 C 159.152344 104.421875 182.914062 99.480469 204.601562 104.828125 L 211.390625 77.425781 C 181.132812 69.925781 147.742188 76.886719 122.507812 98.980469 C 84.085938 132.640625 78.003906 189.472656 106.871094 230.277344 L 90.535156 244.558594 L 157.144531 267.234375 L 143.492188 198.191406 Z M 128.339844 211.480469 " fill-opacity="1" fill-rule="nonzero"/><g clip-path="url(#67871e8989)"><path fill="#ffffff" d="M 187.492188 127.585938 C 162.242188 127.585938 141.777344 148.054688 141.777344 173.304688 C 141.777344 198.554688 162.242188 219.019531 187.492188 219.019531 C 212.742188 219.019531 233.210938 198.554688 233.210938 173.304688 C 233.210938 148.054688 212.742188 127.585938 187.492188 127.585938 Z M 187.492188 140.386719 C 196.582031 140.386719 203.949219 147.757812 203.949219 156.847656 C 203.949219 165.9375 196.582031 173.304688 187.492188 173.304688 C 178.402344 173.304688 171.035156 165.9375 171.035156 156.847656 C 171.035156 147.757812 178.402344 140.386719 187.492188 140.386719 Z M 187.492188 208.050781 C 175.808594 208.050781 165.496094 202.265625 159.195312 193.421875 C 165.496094 184.578125 175.808594 178.792969 187.492188 178.792969 C 199.175781 178.792969 209.488281 184.578125 215.789062 193.421875 C 209.488281 202.265625 199.175781 208.050781 187.492188 208.050781 Z M 187.492188 208.050781 " fill-opacity="1" fill-rule="nonzero"/></g></svg>